<svg version="1.1" preserveAspectRatio="none" xmlns="http://www.w3.org/2000/svg" width="500" height="500" viewBox="0 0 500 500"><rect width="100%" height="100%" rx="60" ry="60" fill="#FF2D2D" fill-opacity="1"/><svg viewBox="1426.72 872.9486 95.2662 120" width="264.363705" height="333" x="117.8181px" y="83.5px" xmlns="http://www.w3.org/2000/svg" xmlns:xlink="http://www.w3.org/1999/xlink" preserveAspectRatio="none"><defs></defs><style>.companyName {fill:#FFFFFF;fill-opacity:1;}.icon3-str {stroke:#370F49;stroke-opacity:1;}</style><g opacity="1" transform="rotate(0 1426.72 872.9486)">
<svg width="95.2662" height="120" x="1426.72" y="872.9486" version="1.1" preserveAspectRatio="none" viewBox="2 -29.76 23.88 30.08">
  <g transform="matrix(1 0 0 1 0 0)" class="companyName"><path id="id-D6z1nYkh1" d="M25.88-2.44Q24.76-1.52 22.32-0.60Q19.88 0.32 17 0.32L17 0.32Q12.40 0.32 9-1.68Q5.60-3.68 3.80-7.06Q2-10.44 2-14.48L2-14.48Q2-18.92 3.80-22.40Q5.60-25.88 8.84-27.82Q12.08-29.76 16.32-29.76L16.32-29.76Q19-29.76 21.28-29.04Q23.56-28.32 25.28-27.24L25.28-27.24L23-21.76Q19.84-24.16 16.52-24.16L16.52-24.16Q14.28-24.16 12.32-22.92Q10.36-21.68 9.20-19.54Q8.04-17.40 8.04-14.80L8.04-14.80Q8.04-11.96 9.12-9.82Q10.20-7.68 12.20-6.48Q14.20-5.28 16.88-5.28L16.88-5.28Q19.04-5.28 20.76-5.98Q22.48-6.68 23.48-7.64L23.48-7.64L25.88-2.44Z"/></g>
</svg>
</g></svg></svg>